<svg t="1583646195842" class="icon" viewBox="0 0 1024 1024" version="1.1" xmlns="http://www.w3.org/2000/svg" p-id="3008"
    width="200" height="200">
    <path
        d="M513.4 958.535s319.557-249.108 319.557-524.396c0-168.025-88.845-261.51-160.52-315.66-105.37-79.606-236.625-62.226-321.832-0.322-120.653 87.656-157.51 203.442-160.756 315.981C181.914 709.313 513.4 958.535 513.4 958.535M261.562 434.139c0-201.258 169.711-281.537 249.539-281.733 81.51-0.201 249.19 81.482 249.19 282.74 0 201.262-181.801 376.071-246.572 429.275-64.777-53.21-252.157-229.02-252.157-430.282z m0 0"
        p-id="3009" fill="#ffffff"></path>
    <path
        d="M658.192 476.617c0-80.964-67.085-148.054-148.058-148.054-80.967 0-148.054 67.09-148.054 148.054 0 80.967 67.086 148.053 148.054 148.053 80.973 0 148.058-67.086 148.058-148.053z m-229.025 0c0-43.951 34.704-78.65 78.654-78.65 43.954 0 78.659 34.699 78.659 78.65 0 43.958-34.704 78.654-78.659 78.654-43.95 0-78.654-34.696-78.654-78.654z m0 0"
        p-id="3010" fill="#ffffff"></path>
</svg>